<!DOCTYPE svg PUBLIC "-//W3C//DTD SVG 20010904//EN" "http://www.w3.org/TR/2001/REC-SVG-20010904/DTD/svg10.dtd">
<svg version="1.0" xmlns="http://www.w3.org/2000/svg" width="485px" height="485px" viewBox="0 0 4850 4850" preserveAspectRatio="xMidYMid meet">
<g id="layer101" fill="#1a6600" stroke="none">
<path d="M617 4829 c-92 -22 -229 -90 -309 -154 -126 -99 -232 -262 -280 -430 l-23 -80 0 -1735 c0 -1626 1 -1739 18 -1799 42 -152 98 -257 196 -363 110 -119 248 -202 406 -244 67 -18 143 -19 1810 -19 l1740 0 90 28 c116 37 209 86 292 156 135 113 230 263 272 425 21 79 21 98 21 1811 0 1702 0 1733 -20 1811 -74 291 -303 520 -594 594 -78 20 -106 20 -1810 19 -1674 0 -1734 -1 -1809 -20z"/>
</g>
<g id="layer102" fill="#1a6600" stroke="none">
<path d="M617 4829 c-92 -22 -229 -90 -309 -154 -126 -99 -232 -262 -280 -430 l-23 -80 0 -1735 c0 -1626 1 -1739 18 -1799 42 -152 98 -257 196 -363 110 -119 248 -202 406 -244 67 -18 143 -19 1810 -19 l1740 0 90 28 c116 37 209 86 292 156 135 113 230 263 272 425 21 79 21 98 21 1811 0 1702 0 1733 -20 1811 -74 291 -303 520 -594 594 -78 20 -106 20 -1810 19 -1674 0 -1734 -1 -1809 -20z m483 -161 c40 -90 91 -201 112 -248 101 -216 385 -861 449 -1015 l29 -69 -17 -54 c-16 -50 -22 -56 -73 -82 -30 -16 -81 -47 -114 -69 -55 -37 -62 -39 -115 -34 -187 16 -1201 131 -1308 149 l-33 5 0 435 c0 358 3 449 16 512 66 321 323 566 652 622 26 4 110 8 188 9 l141 1 73 -162z m3148 134 c288 -89 493 -304 563 -592 8 -34 14 -116 14 -213 l0 -159 -40 -22 c-22 -12 -101 -54 -175 -93 -74 -39 -164 -86 -200 -105 -36 -19 -119 -63 -185 -98 -66 -35 -147 -77 -180 -95 -33 -18 -114 -61 -180 -95 -66 -35 -208 -110 -315 -167 -107 -57 -198 -103 -203 -103 -5 0 -30 11 -56 24 -32 17 -87 31 -181 44 -150 22 -203 38 -180 52 8 5 61 24 118 41 87 28 106 37 118 60 52 102 -33 141 -211 95 -143 -36 -233 -56 -256 -56 -11 0 -46 17 -77 39 -88 59 -167 101 -244 130 l-70 26 -75 190 c-41 105 -117 296 -168 425 -92 233 -263 663 -272 688 -4 10 223 12 1188 10 l1194 -3 73 -23z m579 -3129 c-2 -2 -44 15 -93 37 -104 48 -117 54 -249 113 -96 43 -146 66 -285 130 -36 16 -90 41 -120 54 -30 14 -105 50 -167 79 l-112 53 -45 94 c-25 52 -60 114 -79 139 -33 43 -34 45 -21 86 24 82 30 86 331 233 156 77 286 139 287 139 2 0 73 33 157 74 144 69 222 105 344 162 l50 24 3 -707 c1 -388 1 -708 -1 -710z m-4347 832 c195 -14 382 -27 415 -30 33 -2 103 -7 155 -11 52 -3 111 -7 130 -9 19 -2 85 -7 145 -11 129 -8 147 -14 112 -37 -29 -19 -42 -60 -27 -87 5 -10 35 -43 65 -73 54 -55 54 -55 48 -105 -5 -47 -4 -50 31 -78 21 -17 36 -38 36 -50 0 -12 9 -41 19 -65 11 -25 29 -98 41 -164 28 -165 56 -269 90 -343 l30 -64 -24 -51 c-13 -29 -38 -86 -56 -127 -18 -41 -45 -103 -61 -138 -16 -35 -29 -65 -29 -68 0 -2 -16 -38 -35 -80 -19 -41 -35 -77 -35 -79 0 -3 -11 -28 -24 -57 -26 -60 -90 -203 -116 -263 -10 -22 -34 -77 -54 -122 -20 -46 -51 -118 -70 -160 -19 -43 -46 -107 -62 -141 l-27 -64 -256 4 c-234 4 -262 6 -326 27 -262 86 -448 271 -537 536 l-23 70 -3 938 -3 938 48 -6 c26 -3 208 -16 403 -30z m3655 -1284 l690 -348 3 -49 c5 -70 -16 -186 -50 -281 -82 -228 -278 -411 -520 -485 l-73 -23 -1141 -5 -1141 -5 18 45 c10 25 50 128 89 230 39 102 123 316 187 476 l117 292 95 53 c115 65 178 126 221 213 27 57 36 67 68 76 66 18 235 49 333 60 136 16 264 43 334 73 33 13 65 25 70 26 6 0 321 -156 700 -348z"/>
</g>
<g id="layer103" fill="#1a6600" stroke="none">
<path d="M617 4829 c-92 -22 -229 -90 -309 -154 -126 -99 -232 -262 -280 -430 l-23 -80 0 -1735 c0 -1626 1 -1739 18 -1799 42 -152 98 -257 196 -363 110 -119 248 -202 406 -244 67 -18 143 -19 1810 -19 l1740 0 90 28 c116 37 209 86 292 156 135 113 230 263 272 425 21 79 21 98 21 1811 0 1702 0 1733 -20 1811 -74 291 -303 520 -594 594 -78 20 -106 20 -1810 19 -1674 0 -1734 -1 -1809 -20z m483 -161 c40 -90 91 -201 112 -248 101 -216 385 -861 449 -1015 l29 -69 -17 -54 c-16 -50 -22 -56 -73 -82 -30 -16 -81 -47 -114 -69 -55 -37 -62 -39 -115 -34 -187 16 -1201 131 -1308 149 l-33 5 0 448 c0 512 2 531 85 696 77 155 203 280 358 354 135 65 198 77 408 80 l146 1 73 -162z m3150 135 c158 -51 265 -117 367 -227 86 -92 135 -175 175 -296 30 -91 32 -102 32 -268 l1 -174 -40 -22 c-22 -12 -101 -54 -175 -93 -74 -39 -164 -86 -200 -105 -36 -19 -119 -63 -185 -98 -66 -35 -147 -77 -180 -95 -33 -18 -114 -61 -180 -95 -66 -35 -208 -110 -315 -167 -107 -57 -198 -103 -203 -103 -5 0 -30 11 -56 24 -32 17 -87 31 -181 44 -150 22 -203 38 -180 52 8 5 61 24 118 41 87 28 106 37 118 60 52 102 -33 141 -211 95 -143 -36 -233 -56 -256 -56 -11 0 -46 17 -77 39 -88 59 -167 101 -244 130 l-70 26 -75 190 c-41 105 -117 296 -168 425 -92 233 -263 663 -272 688 -4 10 224 12 1193 10 1191 -3 1199 -4 1264 -25z m577 -3130 c-2 -2 -44 15 -93 37 -104 48 -117 54 -249 113 -96 43 -146 66 -285 130 -36 16 -90 41 -120 54 -30 14 -105 50 -167 79 l-112 53 -45 94 c-25 52 -60 114 -79 139 -33 43 -34 45 -21 86 24 82 30 86 331 233 156 77 286 139 287 139 2 0 73 33 157 74 144 69 222 105 344 162 l50 24 3 -707 c1 -388 1 -708 -1 -710z m-4347 832 c195 -14 382 -27 415 -30 33 -2 103 -7 155 -11 52 -3 111 -7 130 -9 19 -2 85 -7 145 -11 129 -8 147 -14 112 -37 -29 -19 -42 -60 -27 -87 5 -10 35 -43 65 -73 54 -55 54 -55 48 -105 -5 -47 -4 -50 31 -78 21 -17 36 -38 36 -50 0 -12 9 -41 19 -65 11 -25 29 -98 41 -164 28 -165 56 -269 90 -343 l30 -64 -24 -51 c-13 -29 -38 -86 -56 -127 -18 -41 -45 -103 -61 -138 -16 -35 -29 -65 -29 -68 0 -2 -16 -38 -35 -80 -19 -41 -35 -77 -35 -79 0 -3 -11 -28 -24 -57 -26 -60 -90 -203 -116 -263 -10 -22 -34 -77 -54 -122 -20 -46 -51 -118 -70 -160 -19 -43 -46 -106 -61 -141 l-28 -62 -231 0 c-198 0 -243 3 -316 20 -284 69 -512 297 -580 580 -19 82 -20 116 -20 998 l0 913 48 -6 c26 -3 207 -16 402 -30z m3655 -1284 l690 -349 -1 -93 c-3 -274 -168 -531 -424 -663 -167 -86 -60 -80 -1351 -86 l-1146 -5 18 45 c10 25 50 128 89 230 39 102 123 316 187 476 l117 292 95 53 c115 65 178 126 221 213 27 57 36 67 68 76 66 18 235 49 333 60 136 16 264 43 334 73 33 13 65 25 70 26 6 0 321 -156 700 -348z"/>
</g>
<g id="layer104" fill="#1a6600" stroke="none">
<path d="M617 4829 c-92 -22 -229 -90 -309 -154 -126 -99 -232 -262 -280 -430 l-23 -80 0 -1735 c0 -1626 1 -1739 18 -1799 42 -152 98 -257 196 -363 110 -119 248 -202 406 -244 67 -18 143 -19 1810 -19 l1740 0 90 28 c116 37 209 86 292 156 135 113 230 263 272 425 21 79 21 98 21 1811 0 1702 0 1733 -20 1811 -74 291 -303 520 -594 594 -78 20 -106 20 -1810 19 -1674 0 -1734 -1 -1809 -20z m483 -161 c40 -90 91 -201 112 -248 101 -216 385 -861 449 -1015 l29 -69 -17 -54 c-16 -50 -22 -56 -73 -82 -30 -16 -81 -47 -114 -68 -69 -47 -12 -49 -576 14 -534 59 -866 101 -879 109 -15 8 -15 776 0 880 33 238 163 444 359 570 40 26 80 49 89 52 9 3 34 14 56 24 73 32 175 46 336 48 l156 2 73 -163z m3160 134 c209 -72 361 -191 468 -367 16 -27 45 -93 63 -145 32 -93 32 -99 33 -273 l1 -179 -40 -22 c-22 -12 -101 -54 -175 -93 -74 -39 -164 -86 -200 -105 -36 -19 -119 -63 -185 -98 -66 -35 -147 -77 -180 -95 -33 -18 -114 -61 -180 -95 -66 -35 -208 -110 -315 -167 -107 -57 -198 -103 -203 -103 -5 0 -30 11 -56 24 -32 17 -87 31 -181 44 -150 22 -203 38 -180 52 8 5 61 24 118 41 87 28 106 37 118 60 52 102 -33 141 -211 95 -143 -36 -233 -56 -256 -56 -11 0 -46 17 -77 39 -88 59 -167 101 -244 130 l-70 26 -75 190 c-41 105 -117 296 -168 425 -92 233 -263 663 -272 688 -4 10 223 12 1198 10 l1204 -3 65 -23z m567 -3129 c-2 -2 -44 15 -93 37 -104 48 -117 54 -249 113 -96 43 -146 66 -285 130 -36 16 -90 41 -120 54 -30 14 -105 50 -167 79 l-112 53 -45 94 c-25 52 -60 114 -79 139 -33 43 -34 45 -21 86 24 82 30 86 331 233 156 77 286 139 287 139 2 0 73 33 157 74 144 69 222 105 344 162 l50 24 3 -707 c1 -388 1 -708 -1 -710z m-4347 832 c195 -14 382 -27 415 -30 33 -2 103 -7 155 -11 52 -3 111 -7 130 -9 19 -2 85 -7 145 -11 129 -8 147 -14 112 -37 -29 -19 -42 -60 -27 -87 5 -10 35 -43 65 -73 54 -55 54 -55 48 -105 -5 -47 -4 -50 31 -78 21 -17 36 -38 36 -50 0 -12 9 -41 19 -65 11 -25 29 -98 41 -164 28 -165 56 -269 90 -343 l30 -64 -24 -51 c-13 -29 -38 -86 -56 -127 -18 -41 -45 -103 -61 -138 -16 -35 -29 -65 -29 -68 0 -2 -16 -38 -35 -80 -19 -41 -35 -77 -35 -79 0 -3 -11 -28 -24 -57 -26 -60 -90 -203 -116 -263 -10 -22 -34 -77 -54 -122 -20 -46 -51 -118 -70 -160 -19 -43 -46 -106 -61 -140 l-27 -62 -197 -3 c-181 -3 -285 2 -336 16 -11 3 -38 10 -60 15 -96 24 -252 120 -332 204 -62 65 -125 156 -159 232 -24 51 -31 73 -49 150 -3 11 -8 31 -12 45 -8 29 -16 1817 -8 1837 3 10 18 12 52 8 27 -3 208 -16 403 -30z m3655 -1284 l690 -349 1 -80 c2 -77 -21 -206 -47 -262 -116 -259 -297 -418 -548 -480 -79 -20 -112 -21 -1205 -23 l-1123 -2 18 45 c10 25 50 128 89 230 39 102 123 316 187 476 l117 292 95 53 c115 65 178 126 221 213 27 57 36 67 68 76 66 18 235 49 333 60 136 16 264 43 334 73 33 13 65 25 70 26 6 0 321 -156 700 -348z"/>
</g>
<g id="layer105" fill="#1a6600" stroke="none">
<path d="M617 4829 c-92 -22 -229 -90 -309 -154 -126 -99 -232 -262 -280 -430 l-23 -80 0 -1735 c0 -1626 1 -1739 18 -1799 42 -152 98 -257 196 -363 110 -119 248 -202 406 -244 67 -18 143 -19 1810 -19 l1740 0 90 28 c116 37 209 86 292 156 135 113 230 263 272 425 21 79 21 98 21 1811 0 1702 0 1733 -20 1811 -74 291 -303 520 -594 594 -78 20 -106 20 -1810 19 -1674 0 -1734 -1 -1809 -20z m602 -424 c92 -198 380 -850 442 -1000 l29 -69 -17 -54 c-16 -50 -22 -56 -73 -82 -30 -16 -81 -47 -114 -69 -55 -37 -62 -39 -115 -34 -180 15 -1079 118 -1309 149 l-43 5 3 452 c4 427 5 456 26 532 63 229 216 416 427 519 114 56 180 69 375 75 l175 6 81 -180 c44 -99 95 -211 113 -250z m3046 396 c203 -68 354 -188 463 -366 17 -28 46 -93 64 -145 32 -93 32 -98 33 -273 l0 -179 -40 -22 c-22 -12 -101 -54 -175 -93 -74 -39 -164 -86 -200 -105 -36 -19 -119 -63 -185 -98 -66 -35 -147 -77 -180 -95 -33 -18 -114 -61 -180 -95 -66 -35 -208 -110 -315 -167 -107 -57 -198 -103 -203 -103 -5 0 -30 11 -56 24 -32 17 -87 31 -181 44 -150 22 -203 38 -180 52 8 5 61 24 118 41 87 28 106 37 118 60 52 102 -33 141 -211 95 -143 -36 -233 -56 -256 -56 -11 0 -46 17 -77 39 -88 59 -167 101 -243 130 l-70 26 -80 200 c-43 110 -123 310 -176 445 -53 135 -135 342 -182 460 l-86 215 1205 -5 1205 -5 70 -24z m567 -2677 l3 -460 -95 43 c-52 25 -108 50 -125 58 -239 107 -248 111 -415 188 -36 16 -90 41 -120 54 -30 14 -105 50 -167 79 l-112 53 -45 94 c-25 52 -60 114 -79 139 -33 43 -34 45 -21 86 24 82 30 86 331 233 156 77 286 139 287 139 2 0 73 33 157 74 144 68 221 105 344 162 l50 24 2 -253 c2 -138 4 -459 5 -713z m-4352 381 c195 -14 382 -27 415 -30 33 -2 103 -7 155 -11 52 -3 111 -7 130 -9 19 -2 85 -7 145 -11 129 -8 147 -14 112 -37 -29 -19 -42 -60 -27 -87 5 -10 35 -43 65 -73 54 -55 54 -55 48 -105 -5 -47 -4 -50 31 -78 21 -17 36 -38 36 -50 0 -12 9 -41 19 -65 11 -25 29 -98 41 -164 28 -165 56 -269 90 -343 l30 -64 -24 -51 c-13 -29 -38 -86 -56 -127 -18 -41 -45 -103 -61 -138 -16 -35 -29 -65 -29 -68 0 -2 -16 -38 -35 -80 -19 -41 -35 -77 -35 -79 0 -3 -11 -28 -24 -57 -26 -60 -90 -203 -116 -263 -10 -22 -34 -78 -55 -125 -20 -47 -53 -121 -72 -165 -19 -44 -48 -109 -64 -144 l-29 -64 -238 6 c-200 4 -249 8 -316 26 -278 76 -490 292 -572 581 -17 61 -19 129 -22 988 l-3 924 53 -6 c29 -4 213 -17 408 -31z m3659 -1286 l696 -351 -6 -97 c-11 -173 -62 -309 -165 -440 -107 -137 -255 -235 -429 -283 l-80 -23 -1127 -3 -1127 -3 19 48 c10 26 51 131 90 233 39 102 123 316 187 476 l117 292 95 53 c115 65 178 126 221 213 27 57 36 67 68 76 66 18 235 49 333 60 136 16 264 43 334 73 33 13 64 25 69 26 5 0 322 -157 705 -350z"/>
</g>
<g id="layer106" fill="#1a6600" stroke="none">
<path d="M617 4829 c-92 -22 -229 -90 -309 -154 -126 -99 -232 -262 -280 -430 l-23 -80 0 -1735 c0 -1626 1 -1739 18 -1799 42 -152 98 -257 196 -363 110 -119 248 -202 406 -244 67 -18 143 -19 1810 -19 l1740 0 90 28 c116 37 209 86 292 156 135 113 230 263 272 425 21 79 21 98 21 1811 0 1702 0 1733 -20 1811 -74 291 -303 520 -594 594 -78 20 -106 20 -1810 19 -1674 0 -1734 -1 -1809 -20z m477 -147 c39 -86 89 -198 112 -248 99 -213 390 -871 455 -1029 l29 -69 -17 -54 c-16 -50 -22 -56 -73 -82 -30 -16 -81 -47 -114 -69 -55 -37 -62 -39 -115 -34 -180 15 -1078 118 -1309 149 l-43 5 3 462 c4 444 5 465 27 536 97 321 363 547 684 581 39 4 122 8 182 8 l110 1 69 -157z m3140 130 c229 -64 415 -214 516 -417 60 -122 81 -214 87 -395 l6 -155 -114 -59 c-63 -32 -136 -71 -164 -86 -47 -26 -114 -61 -355 -188 -58 -30 -132 -69 -165 -87 -33 -18 -114 -61 -180 -95 -66 -35 -208 -110 -315 -167 -107 -57 -198 -103 -203 -103 -5 0 -30 11 -56 24 -32 17 -87 31 -181 44 -150 22 -203 38 -180 52 8 5 61 24 118 41 87 28 106 37 118 60 52 102 -33 141 -211 95 -143 -36 -233 -56 -256 -56 -11 0 -46 17 -77 39 -88 59 -167 101 -243 130 l-70 26 -80 200 c-43 110 -123 310 -176 445 -53 135 -136 343 -184 463 l-86 218 1186 -3 1186 -4 79 -22z m606 -2436 l0 -715 -97 45 c-54 25 -111 51 -128 59 -239 107 -248 111 -415 188 -36 16 -90 41 -120 54 -30 14 -105 50 -167 79 l-112 53 -45 94 c-25 52 -60 114 -79 139 -33 43 -34 45 -21 86 24 82 30 86 331 233 156 77 286 139 287 139 2 0 73 33 157 74 140 67 189 90 344 162 28 13 53 24 58 24 4 0 7 -321 7 -714z m-4360 129 c195 -14 382 -27 415 -30 33 -2 103 -7 155 -11 52 -3 111 -7 130 -9 19 -2 85 -7 145 -11 129 -8 147 -14 112 -37 -29 -19 -42 -60 -27 -87 5 -10 35 -43 65 -73 54 -55 54 -55 48 -105 -5 -47 -4 -50 31 -78 21 -17 36 -38 36 -50 0 -12 9 -41 19 -65 11 -25 29 -98 41 -164 28 -165 56 -269 90 -343 l30 -64 -24 -51 c-13 -29 -38 -86 -56 -127 -18 -41 -45 -103 -61 -138 -16 -35 -29 -65 -29 -68 0 -2 -16 -38 -35 -80 -19 -41 -35 -77 -35 -79 0 -3 -11 -28 -24 -57 -26 -60 -90 -203 -116 -263 -10 -22 -34 -78 -55 -125 -20 -47 -53 -121 -72 -165 -19 -44 -48 -109 -64 -144 l-29 -63 -242 5 c-260 4 -309 12 -442 71 -173 77 -337 250 -407 430 -58 151 -58 148 -59 1124 l0 893 53 -5 c28 -4 212 -17 407 -31z m3662 -1287 l700 -353 -7 -90 c-26 -346 -250 -624 -585 -727 l-75 -23 -1137 -3 -1137 -3 19 48 c10 26 51 131 90 233 39 102 123 316 187 476 l117 292 95 53 c115 65 178 126 221 213 27 57 36 67 68 76 66 18 235 49 333 60 136 16 264 43 334 73 33 13 64 25 69 26 5 0 323 -158 708 -351z"/>
</g>
<g id="layer107" fill="#546c9b" stroke="none">
<path d="M703 4843 c9 -2 23 -2 30 0 6 3 -1 5 -18 5 -16 0 -22 -2 -12 -5z"/>
<path d="M1029 4828 c10 -27 132 -296 186 -413 100 -216 383 -858 446 -1010 l29 -69 -17 -54 c-16 -50 -22 -56 -73 -82 -30 -16 -81 -47 -114 -68 -69 -47 -12 -49 -576 14 -572 64 -883 103 -892 112 -4 4 -9 201 -11 437 -1 237 -2 -333 -2 -1265 0 -932 1 -1292 2 -800 2 492 6 897 11 901 6 6 204 -6 872 -55 41 -3 116 -8 165 -12 50 -3 106 -7 125 -9 19 -2 85 -7 145 -11 129 -8 147 -14 112 -37 -29 -19 -42 -60 -27 -87 5 -10 35 -43 65 -73 54 -55 54 -55 48 -105 -5 -47 -4 -50 31 -78 21 -17 36 -38 36 -50 0 -12 9 -41 19 -65 11 -25 29 -98 41 -164 28 -165 56 -269 90 -343 l30 -64 -24 -51 c-13 -29 -38 -86 -56 -127 -18 -41 -45 -103 -61 -138 -16 -35 -29 -65 -29 -68 0 -2 -16 -38 -35 -80 -19 -41 -35 -77 -35 -79 0 -3 -11 -28 -24 -57 -20 -45 -48 -107 -112 -253 -52 -118 -110 -251 -137 -314 -18 -41 -45 -102 -62 -135 l-30 -61 -215 -5 c-118 -3 548 -5 1480 -5 932 0 1200 1 595 2 -605 2 -1105 5 -1112 8 -9 3 -7 17 7 52 10 26 51 131 90 233 39 102 123 316 187 476 l117 292 95 53 c115 65 178 126 221 213 27 57 36 67 68 76 66 18 235 49 333 60 137 16 264 43 342 74 l67 27 705 -355 705 -356 0 407 c0 223 -3 404 -6 401 -3 -3 -49 14 -102 39 -53 24 -110 50 -127 58 -242 108 -235 105 -417 189 -32 14 -84 38 -115 52 -32 15 -108 51 -170 80 l-112 53 -45 94 c-25 52 -60 114 -79 139 -33 43 -34 45 -21 86 24 82 30 86 331 233 156 77 286 139 287 139 2 0 68 31 147 69 308 147 382 181 405 187 l24 6 0 387 c0 212 -4 381 -8 375 -7 -11 -37 -28 -257 -144 -55 -29 -138 -73 -185 -98 -47 -24 -132 -69 -190 -100 -58 -30 -132 -69 -165 -87 -33 -18 -114 -61 -180 -95 -66 -35 -208 -110 -315 -167 -107 -57 -198 -103 -203 -103 -5 0 -30 11 -56 24 -32 17 -87 31 -181 44 -150 22 -203 38 -180 52 8 5 61 24 118 41 87 28 106 37 118 60 52 102 -33 141 -211 95 -143 -36 -233 -56 -256 -56 -11 0 -46 17 -77 39 -88 59 -167 101 -244 130 l-70 26 -73 185 c-40 102 -120 304 -178 450 -58 146 -142 360 -188 475 -46 116 -83 213 -81 218 1 4 -171 7 -383 7 l-385 0 9 -22z"/>
<path d="M4123 4843 c9 -2 25 -2 35 0 9 3 1 5 -18 5 -19 0 -27 -2 -17 -5z"/>
<path d="M608 4823 c7 -3 16 -2 19 1 4 3 -2 6 -13 5 -11 0 -14 -3 -6 -6z"/>
<path d="M535 4805 c-39 -17 -21 -18 25 0 19 7 28 14 20 14 -8 0 -28 -6 -45 -14z"/>
<path d="M4340 4790 c8 -5 20 -10 25 -10 6 0 3 5 -5 10 -8 5 -19 10 -25 10 -5 0 -3 -5 5 -10z"/>
<path d="M4420 4757 c0 -2 23 -19 52 -36 28 -18 47 -26 40 -19 -11 14 -92 62 -92 55z"/>
<path d="M394 4734 c-18 -14 -18 -15 4 -4 12 6 22 13 22 15 0 8 -5 6 -26 -11z"/>
<path d="M268 4638 c-57 -55 -58 -57 -9 -14 81 72 86 76 79 76 -3 0 -35 -28 -70 -62z"/>
<path d="M4545 4670 c10 -11 20 -20 23 -20 3 0 -3 9 -13 20 -10 11 -20 20 -23 20 -3 0 3 -9 13 -20z"/>
<path d="M4660 4555 c13 -14 26 -25 28 -25 3 0 -5 11 -18 25 -13 14 -26 25 -28 25 -3 0 5 -11 18 -25z"/>
<path d="M174 4538 l-19 -23 23 19 c21 18 27 26 19 26 -2 0 -12 -10 -23 -22z"/>
<path d="M4715 4483 c15 -24 30 -43 32 -43 7 0 -31 61 -46 73 -8 7 -2 -7 14 -30z"/>
<path d="M143 4498 c-15 -20 -25 -38 -20 -38 3 0 12 11 21 25 17 26 16 35 -1 13z"/>
<path d="M90 4409 c-12 -23 -20 -43 -18 -45 3 -2 14 17 26 41 27 56 20 60 -8 4z"/>
<path d="M4780 4365 c0 -5 5 -17 10 -25 5 -8 10 -10 10 -5 0 6 -5 17 -10 25 -5 8 -10 11 -10 5z"/>
<path d="M31 4254 c0 -11 3 -14 6 -6 3 7 2 16 -1 19 -3 4 -6 -2 -5 -13z"/>
<path d="M4821 4244 c0 -11 3 -14 6 -6 3 7 2 16 -1 19 -3 4 -6 -2 -5 -13z"/>
<path d="M21 4214 c0 -11 3 -14 6 -6 3 7 2 16 -1 19 -3 4 -6 -2 -5 -13z"/>
<path d="M12 4165 c0 -16 2 -22 5 -12 2 9 2 23 0 30 -3 6 -5 -1 -5 -18z"/>
<path d="M4842 4145 c0 -16 2 -22 5 -12 2 9 2 23 0 30 -3 6 -5 -1 -5 -18z"/>
<path d="M4842 710 c0 -19 2 -27 5 -17 2 9 2 25 0 35 -3 9 -5 1 -5 -18z"/>
<path d="M4832 650 c0 -14 2 -19 5 -12 2 6 2 18 0 25 -3 6 -5 1 -5 -13z"/>
<path d="M22 640 c0 -14 2 -19 5 -12 2 6 2 18 0 25 -3 6 -5 1 -5 -13z"/>
<path d="M4802 553 c-15 -48 -8 -55 8 -8 7 20 10 38 8 41 -3 2 -10 -13 -16 -33z"/>
<path d="M40 570 c0 -7 3 -10 7 -7 3 4 3 10 0 14 -4 3 -7 0 -7 -7z"/>
<path d="M50 540 c0 -7 3 -10 7 -7 3 4 3 10 0 14 -4 3 -7 0 -7 -7z"/>
<path d="M60 515 c0 -5 5 -17 10 -25 5 -8 10 -10 10 -5 0 6 -5 17 -10 25 -5 8 -10 11 -10 5z"/>
<path d="M4762 455 c-12 -25 -20 -45 -17 -45 7 0 47 81 43 86 -3 2 -14 -17 -26 -41z"/>
<path d="M110 410 c6 -11 13 -20 16 -20 2 0 0 9 -6 20 -6 11 -13 20 -16 20 -2 0 0 -9 6 -20z"/>
<path d="M4715 374 c-9 -15 -12 -23 -6 -20 11 7 35 46 28 46 -3 0 -12 -12 -22 -26z"/>
<path d="M177 315 c17 -22 55 -62 84 -90 43 -40 40 -36 -16 25 -94 103 -103 111 -68 65z"/>
<path d="M4626 262 c-38 -42 -50 -59 -27 -37 39 37 107 115 99 115 -1 0 -34 -35 -72 -78z"/>
<path d="M4513 163 c-18 -14 -65 -43 -105 -64 -40 -21 -69 -39 -64 -39 16 0 143 71 177 100 42 36 36 39 -8 3z"/>
<path d="M320 176 c0 -2 8 -10 18 -17 15 -13 16 -12 3 4 -13 16 -21 21 -21 13z"/>
<path d="M390 126 c0 -3 9 -10 20 -16 11 -6 20 -8 20 -6 0 3 -9 10 -20 16 -11 6 -20 8 -20 6z"/>
<path d="M490 70 c8 -5 20 -10 25 -10 6 0 3 5 -5 10 -8 5 -19 10 -25 10 -5 0 -3 -5 5 -10z"/>
<path d="M540 50 c8 -5 22 -9 30 -9 10 0 8 3 -5 9 -27 12 -43 12 -25 0z"/>
<path d="M4313 53 c4 -3 10 -3 14 0 3 4 0 7 -7 7 -7 0 -10 -3 -7 -7z"/>
<path d="M4248 33 c7 -3 16 -2 19 1 4 3 -2 6 -13 5 -11 0 -14 -3 -6 -6z"/>
<path d="M4208 23 c7 -3 16 -2 19 1 4 3 -2 6 -13 5 -11 0 -14 -3 -6 -6z"/>
<path d="M683 13 c9 -2 23 -2 30 0 6 3 -1 5 -18 5 -16 0 -22 -2 -12 -5z"/>
<path d="M4153 13 c9 -2 23 -2 30 0 6 3 -1 5 -18 5 -16 0 -22 -2 -12 -5z"/>
</g>
<g id="layer108" fill="#a97d4c" stroke="none">
<path d="M1029 4828 c10 -27 132 -296 186 -413 100 -216 383 -858 446 -1010 l29 -69 -17 -54 c-16 -50 -22 -56 -73 -82 -30 -16 -81 -47 -114 -69 -55 -37 -62 -39 -115 -34 -179 15 -906 98 -1313 149 l-48 6 -3 436 c-1 241 -2 -326 -2 -1258 0 -932 1 -1288 2 -792 l3 904 58 -6 c31 -3 217 -17 412 -31 195 -14 382 -27 415 -30 33 -2 103 -7 155 -11 52 -3 111 -7 130 -9 19 -2 85 -7 145 -11 129 -8 147 -14 112 -37 -29 -19 -42 -60 -27 -87 5 -10 35 -43 65 -73 54 -55 54 -55 48 -105 -5 -47 -4 -50 31 -78 21 -17 36 -38 36 -50 0 -12 9 -41 19 -65 11 -25 29 -98 41 -164 28 -165 56 -269 90 -343 l30 -64 -24 -51 c-13 -29 -38 -86 -56 -127 -18 -41 -45 -103 -61 -138 -16 -35 -29 -65 -29 -68 0 -2 -16 -38 -35 -80 -19 -41 -35 -77 -35 -79 0 -3 -11 -28 -24 -57 -26 -60 -90 -203 -116 -263 -10 -22 -33 -76 -53 -120 -19 -44 -51 -118 -72 -165 -20 -47 -51 -115 -67 -152 l-31 -68 -216 -3 c-119 -1 547 -2 1479 -2 932 0 1194 1 581 2 -1054 3 -1113 4 -1106 21 4 9 24 62 45 117 63 167 126 326 247 631 l117 292 95 53 c115 65 178 126 221 213 27 57 36 67 68 76 66 18 235 49 333 60 137 16 264 43 342 74 l67 27 705 -355 705 -356 0 398 0 399 -77 36 c-43 20 -103 47 -133 60 -228 102 -261 117 -442 201 -32 14 -84 38 -115 52 -32 15 -108 51 -170 80 l-112 53 -45 94 c-25 52 -60 114 -79 139 -33 43 -34 45 -21 86 24 82 30 86 331 233 156 77 286 139 287 139 2 0 73 33 157 74 222 106 328 156 377 177 l42 18 0 376 0 375 -97 -51 c-54 -29 -134 -71 -178 -94 -134 -71 -255 -135 -365 -193 -58 -30 -132 -69 -165 -87 -33 -18 -114 -61 -180 -95 -66 -35 -208 -110 -315 -167 -107 -57 -198 -103 -203 -103 -5 0 -30 11 -56 24 -32 17 -87 31 -181 44 -150 22 -203 38 -180 52 8 5 61 24 118 41 87 28 106 37 118 60 52 102 -33 141 -211 95 -143 -36 -233 -56 -256 -56 -11 0 -46 17 -77 39 -88 59 -167 101 -244 130 l-70 26 -75 190 c-41 105 -117 296 -168 425 -51 129 -131 332 -178 450 -47 118 -91 227 -98 243 l-12 27 -378 0 -379 0 9 -22z"/>
</g>
<g id="layer109" fill="#7589af" stroke="none">
<path d="M698 4843 c6 -2 18 -2 25 0 6 3 1 5 -13 5 -14 0 -19 -2 -12 -5z"/>
<path d="M4133 4843 c9 -2 23 -2 30 0 6 3 -1 5 -18 5 -16 0 -22 -2 -12 -5z"/>
<path d="M648 4833 c7 -3 16 -2 19 1 4 3 -2 6 -13 5 -11 0 -14 -3 -6 -6z"/>
<path d="M4198 4833 c7 -3 16 -2 19 1 4 3 -2 6 -13 5 -11 0 -14 -3 -6 -6z"/>
<path d="M4238 4823 c7 -3 16 -2 19 1 4 3 -2 6 -13 5 -11 0 -14 -3 -6 -6z"/>
<path d="M568 4813 c7 -3 16 -2 19 1 4 3 -2 6 -13 5 -11 0 -14 -3 -6 -6z"/>
<path d="M4273 4813 c4 -3 10 -3 14 0 3 4 0 7 -7 7 -7 0 -10 -3 -7 -7z"/>
<path d="M4303 4803 c4 -3 10 -3 14 0 3 4 0 7 -7 7 -7 0 -10 -3 -7 -7z"/>
<path d="M4333 4793 c4 -3 10 -3 14 0 3 4 0 7 -7 7 -7 0 -10 -3 -7 -7z"/>
<path d="M384 4728 c-4 -7 -3 -8 4 -4 7 4 12 9 12 12 0 8 -9 4 -16 -8z"/>
<path d="M354 4708 c-4 -7 -3 -8 4 -4 7 4 12 9 12 12 0 8 -9 4 -16 -8z"/>
<path d="M319 4683 c-13 -16 -12 -17 4 -4 9 7 17 15 17 17 0 8 -8 3 -21 -13z"/>
<path d="M4530 4686 c0 -2 8 -10 18 -17 15 -13 16 -12 3 4 -13 16 -21 21 -21 13z"/>
<path d="M4665 4550 c10 -11 20 -20 23 -20 3 0 -3 9 -13 20 -10 11 -20 20 -23 20 -3 0 3 -9 13 -20z"/>
<path d="M169 4533 c-13 -16 -12 -17 4 -4 9 7 17 15 17 17 0 8 -8 3 -21 -13z"/>
<path d="M4690 4516 c0 -2 8 -10 18 -17 15 -13 16 -12 3 4 -13 16 -21 21 -21 13z"/>
<path d="M139 4493 c-13 -16 -12 -17 4 -4 9 7 17 15 17 17 0 8 -8 3 -21 -13z"/>
<path d="M104 4438 c-4 -7 -3 -8 4 -4 12 7 16 16 8 16 -3 0 -8 -5 -12 -12z"/>
<path d="M70 4370 c0 -7 3 -10 7 -7 3 4 3 10 0 14 -4 3 -7 0 -7 -7z"/>
<path d="M4790 4340 c0 -7 3 -10 7 -7 3 4 3 10 0 14 -4 3 -7 0 -7 -7z"/>
<path d="M50 4320 c0 -7 3 -10 7 -7 3 4 3 10 0 14 -4 3 -7 0 -7 -7z"/>
<path d="M4800 4310 c0 -7 3 -10 7 -7 3 4 3 10 0 14 -4 3 -7 0 -7 -7z"/>
<path d="M40 4290 c0 -7 3 -10 7 -7 3 4 3 10 0 14 -4 3 -7 0 -7 -7z"/>
<path d="M4810 4280 c0 -7 3 -10 7 -7 3 4 3 10 0 14 -4 3 -7 0 -7 -7z"/>
<path d="M4831 4204 c0 -11 3 -14 6 -6 3 7 2 16 -1 19 -3 4 -6 -2 -5 -13z"/>
<path d="M12 4170 c0 -14 2 -19 5 -12 2 6 2 18 0 25 -3 6 -5 1 -5 -13z"/>
<path d="M4842 4150 c0 -14 2 -19 5 -12 2 6 2 18 0 25 -3 6 -5 1 -5 -13z"/>
<path d="M4842 705 c0 -16 2 -22 5 -12 2 9 2 23 0 30 -3 6 -5 -1 -5 -18z"/>
<path d="M12 690 c0 -14 2 -19 5 -12 2 6 2 18 0 25 -3 6 -5 1 -5 -13z"/>
<path d="M21 634 c0 -11 3 -14 6 -6 3 7 2 16 -1 19 -3 4 -6 -2 -5 -13z"/>
<path d="M4820 610 c0 -7 3 -10 7 -7 3 4 3 10 0 14 -4 3 -7 0 -7 -7z"/>
<path d="M30 600 c0 -7 3 -10 7 -7 3 4 3 10 0 14 -4 3 -7 0 -7 -7z"/>
<path d="M60 510 c0 -7 3 -10 7 -7 3 4 3 10 0 14 -4 3 -7 0 -7 -7z"/>
<path d="M4776 485 c-9 -26 -7 -32 5 -12 6 10 9 21 6 23 -2 3 -7 -2 -11 -11z"/>
<path d="M4750 430 c-6 -11 -8 -20 -6 -20 3 0 10 9 16 20 6 11 8 20 6 20 -3 0 -10 -9 -16 -20z"/>
<path d="M115 400 c3 -5 8 -10 11 -10 3 0 2 5 -1 10 -3 6 -8 10 -11 10 -3 0 -2 -4 1 -10z"/>
<path d="M135 370 c3 -5 8 -10 11 -10 3 0 2 5 -1 10 -3 6 -8 10 -11 10 -3 0 -2 -4 1 -10z"/>
<path d="M4709 363 c-13 -16 -12 -17 4 -4 16 13 21 21 13 21 -2 0 -10 -8 -17 -17z"/>
<path d="M150 346 c0 -2 8 -10 18 -17 15 -13 16 -12 3 4 -13 16 -21 21 -21 13z"/>
<path d="M4679 323 c-13 -16 -12 -17 4 -4 9 7 17 15 17 17 0 8 -8 3 -21 -13z"/>
<path d="M180 307 c0 -2 15 -16 33 -33 l32 -29 -29 33 c-28 30 -36 37 -36 29z"/>
<path d="M285 200 c10 -11 20 -20 23 -20 3 0 -3 9 -13 20 -10 11 -20 20 -23 20 -3 0 3 -9 13 -20z"/>
<path d="M4519 163 c-13 -16 -12 -17 4 -4 9 7 17 15 17 17 0 8 -8 3 -21 -13z"/>
<path d="M365 140 c3 -5 8 -10 11 -10 3 0 2 5 -1 10 -3 6 -8 10 -11 10 -3 0 -2 -4 1 -10z"/>
<path d="M395 120 c3 -5 8 -10 11 -10 3 0 2 5 -1 10 -3 6 -8 10 -11 10 -3 0 -2 -4 1 -10z"/>
<path d="M4444 114 c-18 -14 -18 -15 4 -4 12 6 22 13 22 15 0 8 -5 6 -26 -11z"/>
<path d="M4350 70 c-8 -5 -10 -10 -5 -10 6 0 17 5 25 10 8 5 11 10 5 10 -5 0 -17 -5 -25 -10z"/>
<path d="M503 63 c4 -3 10 -3 14 0 3 4 0 7 -7 7 -7 0 -10 -3 -7 -7z"/>
<path d="M4283 43 c4 -3 10 -3 14 0 3 4 0 7 -7 7 -7 0 -10 -3 -7 -7z"/>
<path d="M593 33 c4 -3 10 -3 14 0 3 4 0 7 -7 7 -7 0 -10 -3 -7 -7z"/>
<path d="M628 23 c7 -3 16 -2 19 1 4 3 -2 6 -13 5 -11 0 -14 -3 -6 -6z"/>
<path d="M678 13 c6 -2 18 -2 25 0 6 3 1 5 -13 5 -14 0 -19 -2 -12 -5z"/>
<path d="M4158 13 c6 -2 18 -2 25 0 6 3 1 5 -13 5 -14 0 -19 -2 -12 -5z"/>
</g>
<g id="layer110" fill="#c39766" stroke="none">
<path d="M5 2430 c0 -932 1 -1288 2 -792 l3 904 58 -6 c31 -3 217 -17 412 -31 195 -14 382 -27 415 -30 33 -2 103 -7 155 -11 52 -3 111 -7 130 -9 19 -2 85 -7 145 -11 129 -8 147 -14 112 -37 -29 -19 -42 -60 -27 -87 5 -10 35 -43 65 -73 54 -55 54 -55 48 -105 -5 -47 -4 -50 31 -78 21 -17 36 -38 36 -50 0 -12 9 -41 19 -65 11 -25 29 -98 41 -164 28 -165 56 -269 90 -343 l30 -64 -24 -51 c-13 -29 -38 -86 -56 -127 -18 -41 -45 -103 -61 -138 -16 -35 -29 -65 -29 -68 0 -2 -16 -38 -35 -80 -19 -41 -35 -77 -35 -79 0 -3 -11 -28 -24 -57 -26 -60 -90 -203 -116 -263 -10 -22 -34 -77 -54 -122 -20 -46 -52 -120 -72 -165 -20 -46 -50 -113 -66 -150 l-31 -68 -216 -3 c-119 -1 547 -2 1479 -2 932 0 1194 1 581 2 -1054 3 -1113 4 -1106 21 4 9 24 62 45 117 63 167 126 326 247 631 l117 292 95 53 c115 65 178 126 221 213 27 57 36 67 68 76 66 18 235 49 333 60 137 16 264 43 342 74 l67 27 687 -346 c378 -191 695 -348 705 -350 17 -4 18 16 18 389 l0 393 -77 36 c-43 20 -103 47 -133 60 -228 102 -261 117 -442 201 -32 14 -84 38 -115 52 -32 15 -108 51 -170 80 l-112 53 -45 94 c-25 52 -61 115 -80 140 l-35 46 15 43 c8 23 22 53 30 67 11 15 111 70 301 162 156 77 286 139 287 139 2 0 73 33 157 74 222 106 328 156 377 177 l42 18 0 376 0 375 -97 -51 c-54 -29 -134 -71 -178 -94 -134 -71 -255 -135 -365 -193 -58 -30 -132 -69 -165 -87 -33 -18 -114 -61 -180 -95 -66 -35 -208 -110 -315 -167 -107 -57 -198 -103 -203 -103 -4 0 -22 7 -38 16 -29 15 -30 15 -20 -5 17 -30 13 -47 -15 -80 -50 -60 -226 -89 -339 -57 -29 9 -77 32 -106 52 -112 75 -149 83 -149 34 0 -16 5 -30 11 -30 5 0 7 -4 4 -10 -9 -15 37 -145 80 -225 51 -95 81 -135 287 -388 207 -253 264 -333 274 -384 6 -33 4 -40 -25 -65 -33 -30 -54 -34 -96 -18 -37 14 -114 89 -181 178 -247 326 -384 476 -384 421 0 -6 41 -106 92 -222 104 -242 193 -450 248 -585 33 -79 37 -97 29 -126 -11 -41 -23 -51 -79 -71 -39 -14 -47 -14 -75 -1 -16 8 -41 30 -55 48 -13 18 -100 186 -193 373 -233 471 -221 450 -245 453 -40 6 -38 -23 14 -203 35 -124 110 -479 121 -575 4 -36 1 -50 -16 -72 -25 -31 -88 -46 -120 -28 -41 21 -86 115 -115 235 -21 88 -164 579 -177 608 -7 17 -17 23 -29 20 -17 -5 -18 -23 -17 -328 l2 -323 -23 -25 c-28 -30 -50 -37 -79 -26 -37 13 -60 75 -67 174 -3 50 -8 115 -11 145 -2 30 -7 91 -10 135 -23 316 -20 303 -176 767 -42 125 -49 206 -28 297 5 24 8 46 5 48 -6 6 -91 -39 -160 -86 -55 -37 -62 -39 -115 -34 -179 15 -906 98 -1313 149 l-48 6 -3 436 c-1 241 -2 -326 -2 -1258z m2062 -97 c-4 -3 -10 -3 -14 0 -3 4 0 7 7 7 7 0 10 -3 7 -7z"/>
<path d="M2970 3381 c-36 -11 -111 -29 -167 -42 -57 -12 -103 -26 -103 -30 0 -4 37 -30 83 -57 137 -82 114 -79 249 -36 101 32 122 43 134 66 19 37 18 72 -5 92 -29 26 -114 29 -191 7z"/>
<path d="M3023 3125 c50 -19 143 -29 151 -17 3 6 -26 14 -70 21 -102 15 -130 14 -81 -4z"/>
</g>
<g id="layer111" fill="#8a9bbb" stroke="none">
<path d="M4138 4843 c6 -2 18 -2 25 0 6 3 1 5 -13 5 -14 0 -19 -2 -12 -5z"/>
<path d="M643 4833 c4 -3 10 -3 14 0 3 4 0 7 -7 7 -7 0 -10 -3 -7 -7z"/>
<path d="M603 4823 c4 -3 10 -3 14 0 3 4 0 7 -7 7 -7 0 -10 -3 -7 -7z"/>
<path d="M4465 4730 c3 -5 8 -10 11 -10 3 0 2 5 -1 10 -3 6 -8 10 -11 10 -3 0 -2 -4 1 -10z"/>
<path d="M4725 4470 c3 -5 8 -10 11 -10 3 0 2 5 -1 10 -3 6 -8 10 -11 10 -3 0 -2 -4 1 -10z"/>
<path d="M30 4260 c0 -7 3 -10 7 -7 3 4 3 10 0 14 -4 3 -7 0 -7 -7z"/>
<path d="M4820 4250 c0 -7 3 -10 7 -7 3 4 3 10 0 14 -4 3 -7 0 -7 -7z"/>
<path d="M20 4220 c0 -7 3 -10 7 -7 3 4 3 10 0 14 -4 3 -7 0 -7 -7z"/>
<path d="M11 4174 c0 -11 3 -14 6 -6 3 7 2 16 -1 19 -3 4 -6 -2 -5 -13z"/>
<path d="M4841 4154 c0 -11 3 -14 6 -6 3 7 2 16 -1 19 -3 4 -6 -2 -5 -13z"/>
<path d="M5 2430 c0 -1225 1 -1444 5 -790 4 798 7 905 20 901 8 -2 188 -16 400 -32 212 -15 419 -30 460 -33 41 -3 116 -8 165 -12 50 -3 106 -7 125 -9 19 -2 85 -7 145 -11 129 -8 147 -14 112 -37 -29 -18 -42 -59 -28 -86 14 -24 131 -144 131 -132 0 29 136 44 242 26 l43 -8 -100 -49 c-55 -28 -108 -60 -117 -71 -23 -29 -22 -84 1 -138 11 -25 29 -98 41 -164 28 -165 56 -269 90 -343 l30 -64 -24 -51 c-13 -29 -38 -86 -56 -127 -18 -41 -45 -103 -61 -138 -16 -35 -29 -65 -29 -68 0 -2 -16 -38 -35 -80 -19 -41 -35 -77 -35 -79 0 -3 -11 -28 -24 -57 -26 -60 -90 -203 -116 -263 -10 -22 -34 -77 -54 -122 -20 -46 -52 -120 -72 -165 -20 -46 -50 -113 -66 -150 l-31 -68 -216 -3 c-119 -1 547 -2 1479 -2 932 0 1194 1 581 2 -1054 3 -1113 4 -1106 21 4 9 24 62 45 117 63 167 126 326 247 631 l117 292 95 53 c137 78 174 119 249 272 5 11 -78 -23 -113 -46 -16 -11 -51 -40 -76 -64 -56 -54 -109 -63 -140 -24 -31 38 -24 89 21 159 38 59 39 62 20 72 -40 22 -86 117 -115 240 -8 36 -25 97 -38 135 l-22 70 -55 4 c-30 2 -66 5 -79 5 l-24 1 -3 -123 c-2 -112 -4 -126 -24 -147 -43 -46 -88 -37 -118 22 -19 36 -23 68 -37 278 -4 44 -8 103 -10 130 -3 28 -7 91 -11 140 -8 124 -20 188 -53 286 -27 81 -29 84 -56 81 -37 -4 -101 -37 -113 -58 -8 -14 -13 -14 -50 5 -54 27 -72 56 -72 112 0 81 52 117 156 106 30 -3 54 -2 54 3 0 4 -16 52 -35 106 -37 106 -45 194 -24 283 5 24 8 46 5 48 -6 6 -91 -39 -160 -86 -55 -37 -62 -39 -115 -34 -125 11 -713 76 -976 108 -154 19 -302 36 -330 39 l-50 4 -5 438 c-3 242 -5 -324 -5 -1256z"/>
<path d="M11 684 c0 -11 3 -14 6 -6 3 7 2 16 -1 19 -3 4 -6 -2 -5 -13z"/>
<path d="M4831 644 c0 -11 3 -14 6 -6 3 7 2 16 -1 19 -3 4 -6 -2 -5 -13z"/>
<path d="M4780 490 c0 -7 3 -10 7 -7 3 4 3 10 0 14 -4 3 -7 0 -7 -7z"/>
<path d="M155 340 c3 -5 8 -10 11 -10 3 0 2 5 -1 10 -3 6 -8 10 -11 10 -3 0 -2 -4 1 -10z"/>
<path d="M4610 243 l-55 -58 58 55 c31 30 57 56 57 57 0 8 -10 -1 -60 -54z"/>
<path d="M280 206 c0 -2 8 -10 18 -17 15 -13 16 -12 3 4 -13 16 -21 21 -21 13z"/>
<path d="M335 160 c3 -5 8 -10 11 -10 3 0 2 5 -1 10 -3 6 -8 10 -11 10 -3 0 -2 -4 1 -10z"/>
<path d="M4484 138 c-4 -7 -3 -8 4 -4 12 7 16 16 8 16 -3 0 -8 -5 -12 -12z"/>
<path d="M4343 63 c4 -3 10 -3 14 0 3 4 0 7 -7 7 -7 0 -10 -3 -7 -7z"/>
<path d="M4253 33 c4 -3 10 -3 14 0 3 4 0 7 -7 7 -7 0 -10 -3 -7 -7z"/>
<path d="M4213 23 c4 -3 10 -3 14 0 3 4 0 7 -7 7 -7 0 -10 -3 -7 -7z"/>
<path d="M678 13 c7 -3 16 -2 19 1 4 3 -2 6 -13 5 -11 0 -14 -3 -6 -6z"/>
</g>
<g id="layer112" fill="#b3a394" stroke="none">
<path d="M5 2430 c0 -1225 1 -1444 5 -790 4 798 7 905 20 901 8 -2 188 -16 400 -32 212 -15 419 -30 460 -33 41 -3 116 -8 165 -12 50 -3 106 -7 125 -9 19 -2 85 -7 145 -11 129 -8 147 -14 112 -37 -29 -18 -42 -59 -28 -86 14 -24 131 -144 131 -132 0 29 136 44 242 26 l43 -8 -100 -49 c-55 -28 -108 -60 -117 -71 -23 -29 -22 -84 1 -138 11 -25 29 -98 41 -164 28 -165 56 -269 90 -343 l30 -64 -24 -51 c-13 -29 -38 -86 -56 -127 -18 -41 -45 -103 -61 -138 -16 -35 -29 -65 -29 -68 0 -2 -16 -38 -35 -80 -19 -41 -35 -77 -35 -79 0 -3 -11 -28 -24 -57 -26 -60 -90 -203 -116 -263 -10 -22 -34 -77 -54 -122 -20 -46 -52 -120 -72 -165 -69 -159 -95 -213 -107 -220 -7 -4 157 -8 363 -8 l375 0 24 63 c71 188 175 455 278 713 l117 292 95 53 c137 78 174 119 249 272 5 11 -78 -23 -113 -46 -16 -11 -51 -40 -76 -64 -56 -54 -109 -63 -140 -24 -31 38 -24 89 21 159 38 59 39 62 20 72 -40 22 -86 117 -115 240 -8 36 -25 97 -38 135 l-22 70 -55 4 c-30 2 -66 5 -79 5 l-24 1 -3 -123 c-2 -112 -4 -126 -24 -147 -43 -46 -88 -37 -118 22 -19 36 -23 68 -37 278 -4 44 -8 103 -10 130 -3 28 -7 91 -11 140 -8 124 -20 188 -53 286 -27 81 -29 84 -56 81 -37 -4 -101 -37 -113 -58 -8 -14 -13 -14 -50 5 -54 27 -72 56 -72 112 0 81 52 117 156 106 30 -3 54 -2 54 3 0 4 -16 52 -35 106 -37 106 -45 194 -24 283 5 24 8 46 5 48 -6 6 -91 -39 -160 -86 -55 -37 -62 -39 -115 -34 -125 11 -713 76 -976 108 -154 19 -302 36 -330 39 l-50 4 -5 438 c-3 242 -5 -324 -5 -1256z"/>
<path d="M4795 3822 c-27 -16 -111 -60 -185 -99 -74 -39 -164 -86 -200 -105 -36 -19 -119 -63 -185 -98 -66 -35 -147 -77 -180 -95 -33 -18 -114 -61 -180 -95 -66 -35 -208 -110 -315 -167 -107 -57 -202 -102 -210 -100 -8 3 -23 8 -32 12 -15 6 -17 3 -12 -22 14 -69 -92 -128 -238 -132 -87 -3 -160 18 -229 65 -111 74 -149 83 -149 35 0 -26 4 -30 38 -36 20 -3 46 -13 57 -21 20 -15 19 -16 -19 -48 -45 -38 -45 -41 17 -156 53 -100 80 -137 295 -399 101 -124 187 -232 192 -240 6 -12 30 -1 131 60 68 40 140 92 162 114 21 22 62 87 90 145 l52 105 170 85 c158 80 288 142 590 285 66 32 163 77 215 102 52 25 114 54 138 64 l42 18 0 376 c0 206 -1 375 -2 375 -2 0 -25 -13 -53 -28z"/>
</g>
<g id="layer113" fill="#92a2c0" stroke="none">
<path d="M698 4843 c7 -3 16 -2 19 1 4 3 -2 6 -13 5 -11 0 -14 -3 -6 -6z"/>
<path d="M4148 4843 c7 -3 16 -2 19 1 4 3 -2 6 -13 5 -11 0 -14 -3 -6 -6z"/>
<path d="M4203 4833 c4 -3 10 -3 14 0 3 4 0 7 -7 7 -7 0 -10 -3 -7 -7z"/>
<path d="M4243 4823 c4 -3 10 -3 14 0 3 4 0 7 -7 7 -7 0 -10 -3 -7 -7z"/>
<path d="M563 4813 c4 -3 10 -3 14 0 3 4 0 7 -7 7 -7 0 -10 -3 -7 -7z"/>
<path d="M533 4803 c4 -3 10 -3 14 0 3 4 0 7 -7 7 -7 0 -10 -3 -7 -7z"/>
<path d="M4495 4710 c3 -5 8 -10 11 -10 3 0 2 5 -1 10 -3 6 -8 10 -11 10 -3 0 -2 -4 1 -10z"/>
<path d="M324 4688 c-4 -7 -3 -8 4 -4 7 4 12 9 12 12 0 8 -9 4 -16 -8z"/>
<path d="M4535 4680 c3 -5 8 -10 11 -10 3 0 2 5 -1 10 -3 6 -8 10 -11 10 -3 0 -2 -4 1 -10z"/>
<path d="M245 4618 l-50 -53 53 50 c28 27 52 51 52 52 0 8 -9 -1 -55 -49z"/>
<path d="M4675 4540 c3 -5 8 -10 11 -10 3 0 2 5 -1 10 -3 6 -8 10 -11 10 -3 0 -2 -4 1 -10z"/>
<path d="M164 4528 c-4 -7 -3 -8 4 -4 7 4 12 9 12 12 0 8 -9 4 -16 -8z"/>
<path d="M4705 4500 c3 -5 8 -10 11 -10 3 0 2 5 -1 10 -3 6 -8 10 -11 10 -3 0 -2 -4 1 -10z"/>
<path d="M134 4488 c-4 -7 -3 -8 4 -4 12 7 16 16 8 16 -3 0 -8 -5 -12 -12z"/>
<path d="M4830 4210 c0 -7 3 -10 7 -7 3 4 3 10 0 14 -4 3 -7 0 -7 -7z"/>
<path d="M4840 4160 c0 -7 3 -10 7 -7 3 4 3 10 0 14 -4 3 -7 0 -7 -7z"/>
<path d="M5 2430 c0 -932 1 -1286 2 -786 3 859 4 908 21 901 9 -4 190 -20 402 -35 212 -16 419 -31 460 -34 41 -3 116 -8 165 -12 50 -3 106 -7 125 -9 19 -2 85 -7 145 -11 129 -8 147 -14 112 -37 -29 -18 -42 -59 -28 -86 14 -24 131 -144 131 -132 0 29 136 44 242 26 l43 -8 -100 -49 c-55 -28 -108 -60 -117 -71 -23 -29 -22 -84 1 -138 11 -25 29 -98 41 -164 28 -165 56 -269 90 -343 l30 -64 -24 -51 c-13 -29 -38 -86 -56 -127 -18 -41 -45 -103 -61 -138 -16 -35 -29 -65 -29 -68 0 -2 -16 -38 -35 -80 -19 -41 -35 -77 -35 -79 0 -3 -11 -28 -24 -57 -26 -60 -90 -203 -116 -263 -10 -22 -34 -77 -54 -122 -133 -304 -166 -380 -166 -387 0 -4 163 -5 362 -4 l362 3 23 55 c12 30 54 138 93 240 39 102 123 316 187 476 l117 292 95 53 c137 78 174 119 249 272 5 11 -78 -23 -113 -46 -16 -11 -51 -40 -76 -64 -56 -54 -109 -63 -140 -24 -31 38 -24 89 21 159 38 59 39 62 20 72 -40 22 -86 117 -115 240 -8 36 -25 97 -38 135 l-22 70 -55 4 c-30 2 -66 5 -79 5 l-24 1 -3 -123 c-2 -112 -4 -126 -24 -147 -43 -46 -88 -37 -118 22 -19 36 -23 68 -37 278 -4 44 -8 103 -10 130 -3 28 -7 91 -11 140 -8 124 -20 188 -53 286 -27 81 -29 84 -56 81 -37 -4 -101 -37 -113 -58 -8 -14 -13 -14 -50 5 -54 27 -72 56 -72 112 0 81 52 117 156 106 30 -3 54 -2 54 3 0 4 -16 52 -35 106 -37 106 -45 194 -24 283 5 24 8 46 5 48 -6 6 -91 -39 -160 -85 -55 -38 -61 -40 -120 -35 -90 7 -814 88 -1090 122 -131 16 -245 27 -252 24 -12 -4 -14 69 -17 438 -1 244 -2 -319 -2 -1251z"/>
<path d="M4841 694 c0 -11 3 -14 6 -6 3 7 2 16 -1 19 -3 4 -6 -2 -5 -13z"/>
<path d="M10 680 c0 -7 3 -10 7 -7 3 4 3 10 0 14 -4 3 -7 0 -7 -7z"/>
<path d="M20 630 c0 -7 3 -10 7 -7 3 4 3 10 0 14 -4 3 -7 0 -7 -7z"/>
<path d="M4810 570 c0 -7 3 -10 7 -7 3 4 3 10 0 14 -4 3 -7 0 -7 -7z"/>
<path d="M4800 540 c0 -7 3 -10 7 -7 3 4 3 10 0 14 -4 3 -7 0 -7 -7z"/>
<path d="M4714 368 c-4 -7 -3 -8 4 -4 7 4 12 9 12 12 0 8 -9 4 -16 -8z"/>
<path d="M4684 328 c-4 -7 -3 -8 4 -4 12 7 16 16 8 16 -3 0 -8 -5 -12 -12z"/>
<path d="M180 306 c0 -2 8 -10 18 -17 15 -13 16 -12 3 4 -13 16 -21 21 -21 13z"/>
<path d="M4644 278 l-19 -23 23 19 c12 11 22 21 22 23 0 8 -8 2 -26 -19z"/>
<path d="M4569 203 c-13 -16 -12 -17 4 -4 9 7 17 15 17 17 0 8 -8 3 -21 -13z"/>
<path d="M295 190 c3 -5 8 -10 11 -10 3 0 2 5 -1 10 -3 6 -8 10 -11 10 -3 0 -2 -4 1 -10z"/>
<path d="M4454 118 c-4 -7 -3 -8 4 -4 12 7 16 16 8 16 -3 0 -8 -5 -12 -12z"/>
<path d="M553 43 c4 -3 10 -3 14 0 3 4 0 7 -7 7 -7 0 -10 -3 -7 -7z"/>
<path d="M4168 13 c7 -3 16 -2 19 1 4 3 -2 6 -13 5 -11 0 -14 -3 -6 -6z"/>
<path d="M758 3 c12 -2 32 -2 45 0 12 2 2 4 -23 4 -25 0 -35 -2 -22 -4z"/>
<path d="M4058 3 c12 -2 32 -2 45 0 12 2 2 4 -23 4 -25 0 -35 -2 -22 -4z"/>
</g>
<g id="layer114" fill="#e2b083" stroke="none">
<path d="M4785 3816 c-22 -12 -101 -54 -175 -93 -74 -39 -164 -86 -200 -105 -36 -19 -119 -63 -185 -98 -66 -35 -147 -77 -180 -95 -33 -18 -114 -61 -180 -95 -66 -35 -208 -110 -315 -167 -107 -57 -202 -102 -210 -100 -8 3 -23 8 -32 12 -15 6 -17 3 -12 -22 14 -69 -92 -128 -238 -132 -87 -3 -160 18 -229 65 -111 74 -149 83 -149 35 0 -26 4 -30 38 -36 20 -3 46 -13 57 -21 20 -15 19 -16 -19 -48 -45 -38 -45 -41 17 -156 53 -100 80 -137 295 -399 101 -124 187 -232 192 -240 6 -12 30 -1 131 60 68 40 140 92 162 114 21 22 62 87 90 145 l52 105 170 85 c158 80 293 145 590 285 206 98 329 156 363 172 l32 15 0 369 c0 289 -3 369 -12 369 -7 -1 -31 -11 -53 -24z"/>
<path d="M2970 3381 c-36 -11 -111 -29 -167 -42 -57 -12 -103 -26 -103 -30 0 -13 197 -126 217 -125 10 1 67 17 126 35 115 37 137 55 137 114 0 59 -96 81 -210 48z"/>
<path d="M0 2905 c0 -336 1 -361 18 -362 66 -7 915 -71 1037 -79 50 -3 106 -7 125 -9 19 -2 85 -7 145 -11 129 -8 147 -14 112 -37 -29 -18 -42 -59 -28 -86 14 -24 131 -144 131 -132 0 29 136 44 242 26 l43 -8 -100 -49 c-55 -28 -108 -60 -117 -71 -23 -29 -22 -84 1 -138 11 -25 29 -98 41 -164 28 -165 56 -269 90 -343 l30 -64 -24 -51 c-13 -29 -38 -86 -56 -127 -18 -41 -45 -103 -61 -138 -16 -35 -29 -65 -29 -68 0 -2 -16 -38 -35 -80 -19 -41 -35 -77 -35 -79 0 -3 -11 -28 -24 -57 -26 -60 -90 -203 -116 -263 -10 -22 -34 -78 -55 -125 -126 -287 -165 -377 -165 -384 0 -4 163 -5 362 -4 l362 3 23 55 c12 30 54 138 93 240 39 102 123 316 187 476 l117 292 95 53 c137 78 174 119 249 272 5 11 -78 -23 -113 -46 -16 -11 -51 -40 -76 -64 -56 -54 -109 -63 -140 -24 -31 38 -24 89 21 159 38 59 39 62 20 72 -40 22 -86 117 -115 240 -8 36 -25 97 -38 135 l-22 70 -55 4 c-30 2 -66 5 -79 5 l-24 1 -3 -123 c-2 -112 -4 -126 -24 -147 -43 -46 -88 -37 -118 22 -19 36 -23 68 -37 278 -4 44 -8 103 -10 130 -3 28 -7 91 -11 140 -8 124 -20 188 -53 286 -27 81 -29 84 -56 81 -37 -4 -101 -37 -113 -58 -8 -14 -13 -14 -50 5 -54 27 -72 56 -72 112 0 81 52 117 156 106 30 -3 54 -2 54 3 0 4 -16 52 -35 106 -37 106 -45 194 -24 283 5 24 8 46 5 48 -6 6 -91 -39 -160 -85 -55 -38 -61 -40 -120 -35 -90 7 -814 89 -1091 122 -131 16 -243 27 -248 24 -5 -3 -13 1 -18 8 -5 8 -9 -137 -9 -346z"/>
<path d="M3033 3129 c10 -6 44 -13 75 -15 72 -6 41 10 -38 20 -42 5 -51 4 -37 -5z"/>
</g>
<g id="layer115" fill="#ddc384" stroke="none">
<path d="M4785 3816 c-22 -12 -101 -54 -175 -93 -74 -39 -164 -86 -200 -105 -36 -19 -119 -63 -185 -98 -66 -35 -147 -77 -180 -95 -33 -18 -114 -61 -180 -95 -66 -35 -208 -110 -315 -167 -107 -57 -202 -102 -210 -100 -8 3 -23 8 -32 12 -15 6 -17 3 -12 -22 14 -69 -92 -128 -238 -132 -87 -3 -160 18 -229 65 -111 74 -149 83 -149 35 0 -26 4 -30 38 -36 20 -3 46 -13 57 -21 20 -15 19 -16 -19 -48 -45 -38 -45 -41 17 -156 53 -100 80 -137 295 -399 101 -124 187 -232 192 -240 6 -12 30 -1 131 60 68 40 139 90 159 111 19 20 60 85 90 145 l55 108 170 85 c158 80 293 145 590 285 206 98 329 156 363 172 l32 15 0 369 c0 289 -3 369 -12 369 -7 -1 -31 -11 -53 -24z"/>
<path d="M3030 3131 c8 -5 42 -12 75 -15 37 -4 52 -3 40 2 -29 13 -134 24 -115 13z"/>
<path d="M1433 2405 c-25 -18 -37 -59 -24 -84 14 -24 131 -144 131 -132 0 18 64 34 131 34 39 -1 69 3 69 9 0 21 -113 125 -169 156 -67 35 -105 40 -138 17z"/>
<path d="M2064 2347 c5 -15 2 -17 -15 -12 -20 7 -20 4 -17 -135 1 -78 6 -144 9 -146 6 -3 98 31 107 41 6 5 -59 219 -75 245 -8 14 -12 17 -9 7z"/>
<path d="M1725 2159 c-55 -28 -108 -61 -117 -72 -23 -29 -22 -84 1 -138 11 -25 29 -98 41 -164 28 -165 56 -269 90 -343 l30 -64 -24 -51 c-13 -29 -38 -86 -56 -127 -18 -41 -45 -103 -61 -138 -16 -35 -29 -65 -29 -68 0 -2 -16 -38 -35 -80 -19 -41 -35 -77 -35 -79 0 -3 -11 -28 -24 -57 -26 -60 -90 -203 -116 -263 -10 -22 -33 -76 -53 -120 -142 -324 -167 -382 -167 -389 0 -4 163 -5 362 -4 l362 3 23 55 c12 30 54 138 93 240 39 102 123 316 187 476 l117 292 95 53 c137 78 174 119 249 272 5 11 -78 -23 -113 -46 -16 -11 -51 -40 -76 -64 -56 -54 -109 -63 -140 -24 -31 38 -24 89 21 159 38 59 39 62 20 72 -40 22 -86 117 -115 240 -8 36 -25 97 -38 135 l-22 70 -55 4 c-30 2 -66 5 -79 5 l-24 1 -3 -123 c-2 -112 -4 -126 -24 -147 -43 -46 -88 -37 -118 22 -19 37 -24 74 -38 283 -3 52 -7 109 -9 125 -2 17 -4 47 -4 68 -1 20 -4 37 -8 36 -5 0 -53 -23 -108 -50z"/>
<path d="M2380 2177 c0 -15 23 -67 30 -67 4 0 6 -8 3 -19 -2 -10 2 -47 11 -82 38 -163 86 -406 86 -441 0 -31 -34 -76 -61 -80 -26 -4 -26 -22 1 -26 44 -7 92 21 162 94 43 45 80 74 92 74 48 1 48 13 0 111 -25 52 -48 96 -50 98 -2 2 -12 -3 -22 -12 -10 -10 -22 -14 -26 -10 -4 5 -28 15 -54 24 -25 8 -47 20 -49 26 -2 6 19 25 47 43 27 18 50 34 50 36 0 10 -101 204 -106 204 -3 0 -13 -4 -23 -10 -13 -7 -27 -3 -54 16 -21 14 -37 23 -37 21z"/>
</g>
<g id="layer116" fill="#e8c488" stroke="none">
<path d="M4785 3816 c-22 -12 -101 -54 -175 -93 -74 -39 -164 -86 -200 -105 -36 -19 -119 -63 -185 -98 -66 -35 -147 -77 -180 -95 -33 -18 -114 -61 -180 -95 -66 -35 -208 -110 -315 -167 -107 -57 -202 -102 -210 -100 -8 3 -23 8 -32 12 -15 6 -17 3 -12 -22 14 -69 -92 -128 -238 -132 -87 -3 -160 18 -229 65 -111 74 -149 83 -149 35 0 -26 4 -30 38 -36 20 -3 46 -13 57 -21 20 -15 19 -16 -19 -48 -45 -38 -45 -41 17 -156 53 -100 80 -137 295 -399 101 -124 187 -232 192 -240 6 -12 30 -1 131 60 68 40 139 91 159 111 19 20 60 85 90 145 l55 108 170 85 c158 80 293 145 590 285 206 98 329 156 363 172 l32 15 0 369 c0 289 -3 369 -12 369 -7 -1 -31 -11 -53 -24z"/>
<path d="M3048 3123 c6 -2 18 -2 25 0 6 3 1 5 -13 5 -14 0 -19 -2 -12 -5z"/>
<path d="M3098 3118 c6 -6 18 -8 28 -6 14 3 12 5 -9 10 -19 3 -25 2 -19 -4z"/>
<path d="M1698 2606 c-64 -23 -88 -43 -88 -76 0 -70 36 -100 123 -100 80 0 81 4 49 100 -16 46 -33 85 -38 86 -5 2 -26 -3 -46 -10z"/>
<path d="M2654 2488 c3 -13 48 -122 101 -243 53 -121 110 -255 128 -297 18 -43 34 -78 37 -78 3 0 21 15 40 33 19 18 57 48 83 66 33 22 45 36 39 44 -5 7 -40 53 -77 102 -123 161 -177 229 -253 313 -74 82 -110 104 -98 60z"/>
<path d="M1467 2413 c12 -2 24 -12 26 -21 3 -12 5 -10 6 6 1 18 -4 22 -26 21 -23 -1 -24 -2 -6 -6z"/>
<path d="M1525 2389 c-8 -12 23 -38 46 -39 9 0 19 -7 23 -15 3 -8 10 -15 16 -15 13 0 79 -72 80 -87 0 -15 50 -18 50 -4 0 5 -10 7 -22 5 -13 -2 -17 -2 -10 2 6 3 12 11 12 18 0 19 -91 102 -137 125 -49 24 -50 24 -58 10z"/>
<path d="M2346 2352 c-6 -17 11 -99 29 -144 6 -16 9 -16 46 2 43 22 43 22 -2 105 -29 54 -63 71 -73 37z"/>
<path d="M2064 2347 c5 -15 2 -17 -14 -12 -19 6 -19 1 -18 -135 1 -78 5 -143 9 -146 6 -3 97 31 107 41 6 5 -59 219 -75 245 -8 14 -12 17 -9 7z"/>
<path d="M1561 2231 c-9 -6 -10 -10 -2 -16 7 -4 18 -2 25 4 7 6 17 7 21 3 5 -4 5 -1 1 6 -8 14 -25 15 -45 3z"/>
<path d="M1510 2212 c0 -12 19 -26 26 -19 2 2 -2 10 -11 17 -9 8 -15 8 -15 2z"/>
<path d="M1725 2159 c-55 -28 -108 -61 -117 -72 -24 -30 -23 -98 2 -130 11 -14 20 -40 21 -59 0 -18 3 -27 6 -20 3 7 23 12 47 12 53 0 136 28 136 45 0 8 7 21 16 30 14 14 16 31 10 113 -3 53 -6 105 -6 115 0 9 -3 17 -7 16 -5 0 -53 -23 -108 -50z"/>
<path d="M2452 2132 c-42 -20 -47 -44 -28 -123 8 -35 18 -80 22 -99 3 -19 11 -40 16 -47 5 -7 7 -16 4 -22 -3 -5 -2 -20 4 -33 8 -20 10 -20 9 -3 -2 37 1 45 17 45 9 0 18 -9 21 -20 6 -23 18 -25 37 -7 12 10 9 14 -17 23 -17 6 -32 15 -34 21 -2 6 19 25 47 43 27 18 50 34 50 36 0 13 -101 204 -108 203 -4 0 -22 -8 -40 -17z"/>
<path d="M2123 1933 c18 -5 24 -23 7 -23 -6 0 -23 -11 -38 -25 -17 -16 -34 -23 -47 -19 -15 4 -16 3 -6 -4 8 -6 10 -15 6 -22 -5 -7 -10 -43 -11 -79 -3 -62 -6 -68 -40 -99 -35 -30 -36 -34 -24 -57 11 -20 21 -25 50 -25 45 0 95 16 135 44 45 32 75 46 97 46 14 0 18 5 14 18 -3 9 -10 37 -16 62 -5 25 -20 77 -32 115 l-23 70 -45 2 c-25 0 -37 -1 -27 -4z"/>
<path d="M1850 1900 c0 -7 3 -10 7 -7 3 4 3 10 0 14 -4 3 -7 0 -7 -7z"/>
<path d="M2631 1826 c-7 -8 -22 -17 -34 -20 -12 -4 -41 -30 -65 -59 -34 -40 -42 -58 -38 -77 19 -83 18 -125 -3 -152 -12 -15 -31 -28 -44 -30 -27 -4 -25 -22 3 -26 44 -7 92 21 162 94 43 45 80 74 92 74 48 1 48 13 -1 113 -26 53 -50 97 -54 97 -4 0 -12 -6 -18 -14z"/>
<path d="M2482 1745 c0 -16 2 -22 5 -12 2 9 2 23 0 30 -3 6 -5 -1 -5 -18z"/>
<path d="M1920 1646 c0 -2 7 -6 15 -10 8 -3 15 -1 15 4 0 6 -7 10 -15 10 -8 0 -15 -2 -15 -4z"/>
<path d="M2308 1393 c7 -3 16 -2 19 1 4 3 -2 6 -13 5 -11 0 -14 -3 -6 -6z"/>
<path d="M2306 1363 c-6 -14 -5 -15 5 -6 7 7 10 15 7 18 -3 3 -9 -2 -12 -12z"/>
<path d="M2546 1345 c-8 -8 -19 -15 -24 -15 -12 0 -52 -44 -52 -58 0 -7 5 -12 10 -12 6 0 10 8 10 19 0 23 23 43 41 36 8 -3 19 5 26 20 13 29 11 31 -11 10z"/>
<path d="M2444 1258 c-4 -7 -3 -8 4 -4 12 7 16 16 8 16 -3 0 -8 -5 -12 -12z"/>
<path d="M2398 1233 c7 -3 16 -2 19 1 4 3 -2 6 -13 5 -11 0 -14 -3 -6 -6z"/>
</g>
<g id="layer117" fill="#b5c0d4" stroke="none">
<path d="M693 4843 c4 -3 10 -3 14 0 3 4 0 7 -7 7 -7 0 -10 -3 -7 -7z"/>
<path d="M4153 4843 c4 -3 10 -3 14 0 3 4 0 7 -7 7 -7 0 -10 -3 -7 -7z"/>
<path d="M279 4653 c-13 -16 -12 -17 4 -4 9 7 17 15 17 17 0 8 -8 3 -21 -13z"/>
<path d="M4580 4647 c0 -2 15 -16 33 -33 l32 -29 -29 33 c-28 30 -36 37 -36 29z"/>
<path d="M209 4583 c-13 -16 -12 -17 4 -4 9 7 17 15 17 17 0 8 -8 3 -21 -13z"/>
<path d="M10 4180 c0 -7 3 -10 7 -7 3 4 3 10 0 14 -4 3 -7 0 -7 -7z"/>
<path d="M2 4100 c0 -14 2 -19 5 -12 2 6 2 18 0 25 -3 6 -5 1 -5 -13z"/>
<path d="M2 760 c0 -14 2 -19 5 -12 2 6 2 18 0 25 -3 6 -5 1 -5 -13z"/>
<path d="M4840 690 c0 -7 3 -10 7 -7 3 4 3 10 0 14 -4 3 -7 0 -7 -7z"/>
<path d="M4830 640 c0 -7 3 -10 7 -7 3 4 3 10 0 14 -4 3 -7 0 -7 -7z"/>
<path d="M185 300 c3 -5 8 -10 11 -10 3 0 2 5 -1 10 -3 6 -8 10 -11 10 -3 0 -2 -4 1 -10z"/>
<path d="M4649 283 c-13 -16 -12 -17 4 -4 16 13 21 21 13 21 -2 0 -10 -8 -17 -17z"/>
<path d="M4564 198 c-4 -7 -3 -8 4 -4 12 7 16 16 8 16 -3 0 -8 -5 -12 -12z"/>
<path d="M4514 158 c-4 -7 -3 -8 4 -4 7 4 12 9 12 12 0 8 -9 4 -16 -8z"/>
<path d="M623 23 c4 -3 10 -3 14 0 3 4 0 7 -7 7 -7 0 -10 -3 -7 -7z"/>
<path d="M673 13 c4 -3 10 -3 14 0 3 4 0 7 -7 7 -7 0 -10 -3 -7 -7z"/>
<path d="M4173 13 c4 -3 10 -3 14 0 3 4 0 7 -7 7 -7 0 -10 -3 -7 -7z"/>
<path d="M753 3 c9 -2 23 -2 30 0 6 3 -1 5 -18 5 -16 0 -22 -2 -12 -5z"/>
<path d="M4073 3 c9 -2 25 -2 35 0 9 3 1 5 -18 5 -19 0 -27 -2 -17 -5z"/>
</g>


</svg>